<svg height="5438" width="720" xmlns="http://www.w3.org/2000/svg">
<rect height="5438" fill="#555" width="720"></rect>
<text fill="#7f7" font-family="Courier New" font-size="12" xml:space="preserve">
<tspan x="10" y="26">└─┬ firebase-tools@3.6.0 </tspan>
<tspan x="10" y="42">  ├─┬ archiver@0.16.0 </tspan>
<tspan x="10" y="58">  │ ├── async@1.4.2 </tspan>
<tspan x="10" y="74">  │ ├── buffer-crc32@0.2.13 </tspan>
<tspan x="10" y="90">  │ ├─┬ glob@5.0.15 </tspan>
<tspan x="10" y="106">  │ │ ├─┬ inflight@1.0.6 </tspan>
<tspan x="10" y="122">  │ │ │ └── wrappy@1.0.2 </tspan>
<tspan x="10" y="138">  │ │ └── once@1.4.0 </tspan>
<tspan x="10" y="154">  │ ├── lazystream@0.1.0 </tspan>
<tspan x="10" y="170">  │ ├── lodash@3.10.1 </tspan>
<tspan x="10" y="186">  │ ├─┬ readable-stream@1.0.34 </tspan>
<tspan x="10" y="202">  │ │ ├── core-util-is@1.0.2 </tspan>
<tspan x="10" y="218">  │ │ ├── isarray@0.0.1 </tspan>
<tspan x="10" y="234">  │ │ └── string_decoder@0.10.31 </tspan>
<tspan x="10" y="250">  │ ├─┬ tar-stream@1.2.2 </tspan>
<tspan x="10" y="266">  │ │ ├─┬ bl@1.2.0 </tspan>
<tspan x="10" y="282">  │ │ │ └─┬ readable-stream@2.2.6 </tspan>
<tspan x="10" y="298">  │ │ │   └── isarray@1.0.0 </tspan>
<tspan x="10" y="314">  │ │ ├── end-of-stream@1.4.0 </tspan>
<tspan x="10" y="330">  │ │ └─┬ readable-stream@2.2.6 </tspan>
<tspan x="10" y="346">  │ │   ├── buffer-shims@1.0.0 </tspan>
<tspan x="10" y="362">  │ │   ├── isarray@1.0.0 </tspan>
<tspan x="10" y="378">  │ │   ├── process-nextick-args@1.0.7 </tspan>
<tspan x="10" y="394">  │ │   └── util-deprecate@1.0.2 </tspan>
<tspan x="10" y="410">  │ └─┬ zip-stream@0.6.0 </tspan>
<tspan x="10" y="426">  │   ├─┬ compress-commons@0.3.0 </tspan>
<tspan x="10" y="442">  │   │ ├── crc32-stream@0.3.4 </tspan>
<tspan x="10" y="458">  │   │ └── node-int64@0.4.0 </tspan>
<tspan x="10" y="474">  │   └── lodash@3.10.1 </tspan>
<tspan x="10" y="490">  ├─┬ chalk@1.1.3 </tspan>
<tspan x="10" y="506">  │ ├── ansi-styles@2.2.1 </tspan>
<tspan x="10" y="522">  │ ├── escape-string-regexp@1.0.5 </tspan>
<tspan x="10" y="538">  │ ├── has-ansi@2.0.0 </tspan>
<tspan x="10" y="554">  │ ├── strip-ansi@3.0.1 </tspan>
<tspan x="10" y="570">  │ └── supports-color@2.0.0 </tspan>
<tspan x="10" y="586">  ├─┬ cjson@0.3.3 </tspan>
<tspan x="10" y="602">  │ └─┬ json-parse-helpfulerror@1.0.3 </tspan>
<tspan x="10" y="618">  │   └── jju@1.3.0 </tspan>
<tspan x="10" y="634">  ├─┬ cli-table@0.3.1 </tspan>
<tspan x="10" y="650">  │ └── colors@1.0.3 </tspan>
<tspan x="10" y="666">  ├─┬ commander@2.9.0 </tspan>
<tspan x="10" y="682">  │ └── graceful-readlink@1.0.1 </tspan>
<tspan x="10" y="698">  ├─┬ configstore@1.4.0 </tspan>
<tspan x="10" y="714">  │ ├── graceful-fs@4.1.11 </tspan>
<tspan x="10" y="730">  │ ├─┬ mkdirp@0.5.1 </tspan>
<tspan x="10" y="746">  │ │ └── minimist@0.0.8 </tspan>
<tspan x="10" y="762">  │ ├── object-assign@4.1.1 </tspan>
<tspan x="10" y="778">  │ ├── os-tmpdir@1.0.2 </tspan>
<tspan x="10" y="794">  │ ├── osenv@0.1.4 </tspan>
<tspan x="10" y="810">  │ ├── uuid@2.0.3 </tspan>
<tspan x="10" y="826">  │ ├─┬ write-file-atomic@1.3.1 </tspan>
<tspan x="10" y="842">  │ │ ├── imurmurhash@0.1.4 </tspan>
<tspan x="10" y="858">  │ │ └── slide@1.1.6 </tspan>
<tspan x="10" y="874">  │ └── xdg-basedir@2.0.0 </tspan>
<tspan x="10" y="890">  ├─┬ cross-spawn@4.0.2 </tspan>
<tspan x="10" y="906">  │ ├─┬ lru-cache@4.0.2 </tspan>
<tspan x="10" y="922">  │ │ ├── pseudomap@1.0.2 </tspan>
<tspan x="10" y="938">  │ │ └── yallist@2.1.2 </tspan>
<tspan x="10" y="954">  │ └─┬ which@1.2.14 </tspan>
<tspan x="10" y="970">  │   └── isexe@2.0.0 </tspan>
<tspan x="10" y="986">  ├─┬ csv-streamify@3.0.4 </tspan>
<tspan x="10" y="1002">  │ └─┬ through2@2.0.1 </tspan>
<tspan x="10" y="1018">  │   └─┬ readable-stream@2.0.6 </tspan>
<tspan x="10" y="1034">  │     └── isarray@1.0.0 </tspan>
<tspan x="10" y="1050">  ├── didyoumean@1.2.1 </tspan>
<tspan x="10" y="1066">  ├─┬ es6-set@0.1.5 </tspan>
<tspan x="10" y="1082">  │ ├── d@1.0.0 </tspan>
<tspan x="10" y="1098">  │ ├── es5-ext@0.10.15 </tspan>
<tspan x="10" y="1114">  │ ├── es6-iterator@2.0.1 </tspan>
<tspan x="10" y="1130">  │ ├── es6-symbol@3.1.1 </tspan>
<tspan x="10" y="1146">  │ └── event-emitter@0.3.5 </tspan>
<tspan x="10" y="1162">  ├── exit-code@1.0.2 </tspan>
<tspan x="10" y="1178">  ├── filesize@3.5.6 </tspan>
<tspan x="10" y="1194">  ├─┬ firebase@2.4.2 </tspan>
<tspan x="10" y="1210">  │ └─┬ faye-websocket@0.9.3 </tspan>
<tspan x="10" y="1226">  │   └─┬ websocket-driver@0.5.2 </tspan>
<tspan x="10" y="1242">  │     └── websocket-extensions@0.1.1 </tspan>
<tspan x="10" y="1258">  ├─┬ fs-extra@0.23.1 </tspan>
<tspan x="10" y="1274">  │ ├── jsonfile@2.4.0 </tspan>
<tspan x="10" y="1290">  │ ├── path-is-absolute@1.0.1 </tspan>
<tspan x="10" y="1306">  │ └─┬ rimraf@2.6.1 </tspan>
<tspan x="10" y="1322">  │   └── glob@7.1.1 </tspan>
<tspan x="10" y="1338">  ├─┬ fstream-ignore@1.0.5 </tspan>
<tspan x="10" y="1354">  │ ├── fstream@1.0.11 </tspan>
<tspan x="10" y="1370">  │ ├── inherits@2.0.3 </tspan>
<tspan x="10" y="1386">  │ └─┬ minimatch@3.0.3 </tspan>
<tspan x="10" y="1402">  │   └─┬ brace-expansion@1.1.6 </tspan>
<tspan x="10" y="1418">  │     ├── balanced-match@0.4.2 </tspan>
<tspan x="10" y="1434">  │     └── concat-map@0.0.1 </tspan>
<tspan x="10" y="1450">  ├─┬ inquirer@0.12.0 </tspan>
<tspan x="10" y="1466">  │ ├── ansi-escapes@1.4.0 </tspan>
<tspan x="10" y="1482">  │ ├── ansi-regex@2.1.1 </tspan>
<tspan x="10" y="1498">  │ ├─┬ cli-cursor@1.0.2 </tspan>
<tspan x="10" y="1514">  │ │ └─┬ restore-cursor@1.0.1 </tspan>
<tspan x="10" y="1530">  │ │   ├── exit-hook@1.1.1 </tspan>
<tspan x="10" y="1546">  │ │   └── onetime@1.1.0 </tspan>
<tspan x="10" y="1562">  │ ├── cli-width@2.1.0 </tspan>
<tspan x="10" y="1578">  │ ├── figures@1.7.0 </tspan>
<tspan x="10" y="1594">  │ ├─┬ readline2@1.0.1 </tspan>
<tspan x="10" y="1610">  │ │ ├── code-point-at@1.1.0 </tspan>
<tspan x="10" y="1626">  │ │ ├─┬ is-fullwidth-code-point@1.0.0 </tspan>
<tspan x="10" y="1642">  │ │ │ └── number-is-nan@1.0.1 </tspan>
<tspan x="10" y="1658">  │ │ └── mute-stream@0.0.5 </tspan>
<tspan x="10" y="1674">  │ ├── run-async@0.1.0 </tspan>
<tspan x="10" y="1690">  │ ├── rx-lite@3.1.2 </tspan>
<tspan x="10" y="1706">  │ └── string-width@1.0.2 </tspan>
<tspan x="10" y="1722">  ├── jsonschema@1.1.1 </tspan>
<tspan x="10" y="1738">  ├─┬ JSONStream@1.3.1 </tspan>
<tspan x="10" y="1754">  │ ├── jsonparse@1.3.0 </tspan>
<tspan x="10" y="1770">  │ └── through@2.3.8 </tspan>
<tspan x="10" y="1786">  ├─┬ jsonwebtoken@5.7.0 </tspan>
<tspan x="10" y="1802">  │ ├─┬ jws@3.1.4 </tspan>
<tspan x="10" y="1818">  │ │ ├── base64url@2.0.0 </tspan>
<tspan x="10" y="1834">  │ │ └─┬ jwa@1.1.5 </tspan>
<tspan x="10" y="1850">  │ │   ├── buffer-equal-constant-time@1.0.1 </tspan>
<tspan x="10" y="1866">  │ │   └── ecdsa-sig-formatter@1.0.9 </tspan>
<tspan x="10" y="1882">  │ ├── ms@0.7.3 </tspan>
<tspan x="10" y="1898">  │ └── xtend@4.0.1 </tspan>
<tspan x="10" y="1914">  ├── lodash@4.17.4 </tspan>
<tspan x="10" y="1930">  ├── open@0.0.5 </tspan>
<tspan x="10" y="1946">  ├─┬ ora@0.2.3 </tspan>
<tspan x="10" y="1962">  │ └── cli-spinners@0.1.2 </tspan>
<tspan x="10" y="1978">  ├─┬ portfinder@0.4.0 </tspan>
<tspan x="10" y="1994">  │ └── async@0.9.0 </tspan>
<tspan x="10" y="2010">  ├── progress@1.1.8 </tspan>
<tspan x="10" y="2026">  ├─┬ request@2.81.0 </tspan>
<tspan x="10" y="2042">  │ ├── aws-sign2@0.6.0 </tspan>
<tspan x="10" y="2058">  │ ├── aws4@1.6.0 </tspan>
<tspan x="10" y="2074">  │ ├── caseless@0.12.0 </tspan>
<tspan x="10" y="2090">  │ ├─┬ combined-stream@1.0.5 </tspan>
<tspan x="10" y="2106">  │ │ └── delayed-stream@1.0.0 </tspan>
<tspan x="10" y="2122">  │ ├── extend@3.0.0 </tspan>
<tspan x="10" y="2138">  │ ├── forever-agent@0.6.1 </tspan>
<tspan x="10" y="2154">  │ ├─┬ form-data@2.1.2 </tspan>
<tspan x="10" y="2170">  │ │ └── asynckit@0.4.0 </tspan>
<tspan x="10" y="2186">  │ ├─┬ har-validator@4.2.1 </tspan>
<tspan x="10" y="2202">  │ │ ├─┬ ajv@4.11.5 </tspan>
<tspan x="10" y="2218">  │ │ │ ├── co@4.6.0 </tspan>
<tspan x="10" y="2234">  │ │ │ └─┬ json-stable-stringify@1.0.1 </tspan>
<tspan x="10" y="2250">  │ │ │   └── jsonify@0.0.0 </tspan>
<tspan x="10" y="2266">  │ │ └── har-schema@1.0.5 </tspan>
<tspan x="10" y="2282">  │ ├─┬ hawk@3.1.3 </tspan>
<tspan x="10" y="2298">  │ │ ├── boom@2.10.1 </tspan>
<tspan x="10" y="2314">  │ │ ├── cryptiles@2.0.5 </tspan>
<tspan x="10" y="2330">  │ │ ├── hoek@2.16.3 </tspan>
<tspan x="10" y="2346">  │ │ └── sntp@1.0.9 </tspan>
<tspan x="10" y="2362">  │ ├─┬ http-signature@1.1.1 </tspan>
<tspan x="10" y="2378">  │ │ ├── assert-plus@0.2.0 </tspan>
<tspan x="10" y="2394">  │ │ ├─┬ jsprim@1.4.0 </tspan>
<tspan x="10" y="2410">  │ │ │ ├── assert-plus@1.0.0 </tspan>
<tspan x="10" y="2426">  │ │ │ ├── extsprintf@1.0.2 </tspan>
<tspan x="10" y="2442">  │ │ │ ├── json-schema@0.2.3 </tspan>
<tspan x="10" y="2458">  │ │ │ └── verror@1.3.6 </tspan>
<tspan x="10" y="2474">  │ │ └─┬ sshpk@1.11.0 </tspan>
<tspan x="10" y="2490">  │ │   ├── asn1@0.2.3 </tspan>
<tspan x="10" y="2506">  │ │   ├── assert-plus@1.0.0 </tspan>
<tspan x="10" y="2522">  │ │   ├── bcrypt-pbkdf@1.0.1 </tspan>
<tspan x="10" y="2538">  │ │   ├─┬ dashdash@1.14.1 </tspan>
<tspan x="10" y="2554">  │ │   │ └── assert-plus@1.0.0 </tspan>
<tspan x="10" y="2570">  │ │   ├── ecc-jsbn@0.1.1 </tspan>
<tspan x="10" y="2586">  │ │   ├─┬ getpass@0.1.6 </tspan>
<tspan x="10" y="2602">  │ │   │ └── assert-plus@1.0.0 </tspan>
<tspan x="10" y="2618">  │ │   ├── jodid25519@1.0.2 </tspan>
<tspan x="10" y="2634">  │ │   ├── jsbn@0.1.1 </tspan>
<tspan x="10" y="2650">  │ │   └── tweetnacl@0.14.5 </tspan>
<tspan x="10" y="2666">  │ ├── is-typedarray@1.0.0 </tspan>
<tspan x="10" y="2682">  │ ├── isstream@0.1.2 </tspan>
<tspan x="10" y="2698">  │ ├── json-stringify-safe@5.0.1 </tspan>
<tspan x="10" y="2714">  │ ├─┬ mime-types@2.1.15 </tspan>
<tspan x="10" y="2730">  │ │ └── mime-db@1.27.0 </tspan>
<tspan x="10" y="2746">  │ ├── oauth-sign@0.8.2 </tspan>
<tspan x="10" y="2762">  │ ├── performance-now@0.2.0 </tspan>
<tspan x="10" y="2778">  │ ├── qs@6.4.0 </tspan>
<tspan x="10" y="2794">  │ ├── safe-buffer@5.0.1 </tspan>
<tspan x="10" y="2810">  │ ├── stringstream@0.0.5 </tspan>
<tspan x="10" y="2826">  │ ├─┬ tough-cookie@2.3.2 </tspan>
<tspan x="10" y="2842">  │ │ └── punycode@1.4.1 </tspan>
<tspan x="10" y="2858">  │ └── tunnel-agent@0.6.0 </tspan>
<tspan x="10" y="2874">  ├── rsvp@3.5.0 </tspan>
<tspan x="10" y="2890">  ├── semver@5.3.0 </tspan>
<tspan x="10" y="2906">  ├─┬ superstatic@4.0.3 </tspan>
<tspan x="10" y="2922">  │ ├── as-array@2.0.0 </tspan>
<tspan x="10" y="2938">  │ ├── async@1.5.2 </tspan>
<tspan x="10" y="2954">  │ ├── basic-auth-connect@1.0.0 </tspan>
<tspan x="10" y="2970">  │ ├── char-spinner@1.0.1 </tspan>
<tspan x="10" y="2986">  │ ├── compare-semver@1.1.0 </tspan>
<tspan x="10" y="3002">  │ ├─┬ compression@1.6.2 </tspan>
<tspan x="10" y="3018">  │ │ ├─┬ accepts@1.3.3 </tspan>
<tspan x="10" y="3034">  │ │ │ └── negotiator@0.6.1 </tspan>
<tspan x="10" y="3050">  │ │ ├── bytes@2.3.0 </tspan>
<tspan x="10" y="3066">  │ │ ├── compressible@2.0.10 </tspan>
<tspan x="10" y="3082">  │ │ ├─┬ debug@2.2.0 </tspan>
<tspan x="10" y="3098">  │ │ │ └── ms@0.7.1 </tspan>
<tspan x="10" y="3114">  │ │ └── vary@1.1.1 </tspan>
<tspan x="10" y="3130">  │ ├─┬ connect@3.6.0 </tspan>
<tspan x="10" y="3146">  │ │ ├─┬ debug@2.6.1 </tspan>
<tspan x="10" y="3162">  │ │ │ └── ms@0.7.2 </tspan>
<tspan x="10" y="3178">  │ │ ├─┬ finalhandler@1.0.0 </tspan>
<tspan x="10" y="3194">  │ │ │ ├─┬ debug@2.6.1 </tspan>
<tspan x="10" y="3210">  │ │ │ │ └── ms@0.7.2 </tspan>
<tspan x="10" y="3226">  │ │ │ ├── encodeurl@1.0.1 </tspan>
<tspan x="10" y="3242">  │ │ │ ├── escape-html@1.0.3 </tspan>
<tspan x="10" y="3258">  │ │ │ ├── statuses@1.3.1 </tspan>
<tspan x="10" y="3274">  │ │ │ └── unpipe@1.0.0 </tspan>
<tspan x="10" y="3290">  │ │ ├── parseurl@1.3.1 </tspan>
<tspan x="10" y="3306">  │ │ └── utils-merge@1.0.0 </tspan>
<tspan x="10" y="3322">  │ ├─┬ connect-query@0.2.0 </tspan>
<tspan x="10" y="3338">  │ │ └── qs@1.1.0 </tspan>
<tspan x="10" y="3354">  │ ├── destroy@1.0.4 </tspan>
<tspan x="10" y="3370">  │ ├── fast-url-parser@1.1.3 </tspan>
<tspan x="10" y="3386">  │ ├─┬ fs-extra@0.30.0 </tspan>
<tspan x="10" y="3402">  │ │ └── klaw@1.3.1 </tspan>
<tspan x="10" y="3418">  │ ├─┬ glob@7.1.1 </tspan>
<tspan x="10" y="3434">  │ │ └── fs.realpath@1.0.0 </tspan>
<tspan x="10" y="3450">  │ ├─┬ glob-slasher@1.0.1 </tspan>
<tspan x="10" y="3466">  │ │ ├── glob-slash@1.0.0 </tspan>
<tspan x="10" y="3482">  │ │ ├─┬ lodash.isobject@2.4.1 </tspan>
<tspan x="10" y="3498">  │ │ │ └── lodash._objecttypes@2.4.1 </tspan>
<tspan x="10" y="3514">  │ │ └─┬ toxic@1.0.0 </tspan>
<tspan x="10" y="3530">  │ │   └── lodash@2.4.2 </tspan>
<tspan x="10" y="3546">  │ ├── home-dir@1.0.0 </tspan>
<tspan x="10" y="3562">  │ ├── is-url@1.2.2 </tspan>
<tspan x="10" y="3578">  │ ├─┬ join-path@1.1.1 </tspan>
<tspan x="10" y="3594">  │ │ ├── url-join@0.0.1 </tspan>
<tspan x="10" y="3610">  │ │ └── valid-url@1.0.9 </tspan>
<tspan x="10" y="3626">  │ ├─┬ morgan@1.8.1 </tspan>
<tspan x="10" y="3642">  │ │ ├── basic-auth@1.1.0 </tspan>
<tspan x="10" y="3658">  │ │ ├─┬ debug@2.6.1 </tspan>
<tspan x="10" y="3674">  │ │ │ └── ms@0.7.2 </tspan>
<tspan x="10" y="3690">  │ │ └── depd@1.1.0 </tspan>
<tspan x="10" y="3706">  │ ├─┬ nash@2.0.4 </tspan>
<tspan x="10" y="3722">  │ │ ├─┬ flat-arguments@1.0.2 </tspan>
<tspan x="10" y="3738">  │ │ │ ├── array-flatten@1.1.1 </tspan>
<tspan x="10" y="3754">  │ │ │ ├─┬ as-array@1.0.0 </tspan>
<tspan x="10" y="3770">  │ │ │ │ ├── lodash.isarguments@2.4.1 </tspan>
<tspan x="10" y="3786">  │ │ │ │ ├── lodash.isobject@2.4.1 </tspan>
<tspan x="10" y="3802">  │ │ │ │ └─┬ lodash.values@2.4.1 </tspan>
<tspan x="10" y="3818">  │ │ │ │   └─┬ lodash.keys@2.4.1 </tspan>
<tspan x="10" y="3834">  │ │ │ │     ├── lodash._isnative@2.4.1 </tspan>
<tspan x="10" y="3850">  │ │ │ │     └── lodash._shimkeys@2.4.1 </tspan>
<tspan x="10" y="3866">  │ │ │ ├── lodash.isarguments@3.1.0 </tspan>
<tspan x="10" y="3882">  │ │ │ └── lodash.isobject@3.0.2 </tspan>
<tspan x="10" y="3898">  │ │ ├── lodash@3.10.1 </tspan>
<tspan x="10" y="3914">  │ │ └── minimist@1.2.0 </tspan>
<tspan x="10" y="3930">  │ ├─┬ on-finished@2.3.0 </tspan>
<tspan x="10" y="3946">  │ │ └── ee-first@1.1.1 </tspan>
<tspan x="10" y="3962">  │ ├── on-headers@1.0.1 </tspan>
<tspan x="10" y="3978">  │ ├── path-to-regexp@1.7.0 </tspan>
<tspan x="10" y="3994">  │ ├─┬ router@1.3.0 </tspan>
<tspan x="10" y="4010">  │ │ ├── array-flatten@2.1.1 </tspan>
<tspan x="10" y="4026">  │ │ ├─┬ debug@2.6.1 </tspan>
<tspan x="10" y="4042">  │ │ │ └── ms@0.7.2 </tspan>
<tspan x="10" y="4058">  │ │ ├── methods@1.1.2 </tspan>
<tspan x="10" y="4074">  │ │ ├── path-to-regexp@0.1.7 </tspan>
<tspan x="10" y="4090">  │ │ └── setprototypeof@1.0.3 </tspan>
<tspan x="10" y="4106">  │ ├── string-length@1.0.1 </tspan>
<tspan x="10" y="4122">  │ ├── try-require@1.2.1 </tspan>
<tspan x="10" y="4138">  │ └─┬ update-notifier@1.0.3 </tspan>
<tspan x="10" y="4154">  │   ├─┬ boxen@0.6.0 </tspan>
<tspan x="10" y="4170">  │   │ ├── ansi-align@1.1.0 </tspan>
<tspan x="10" y="4186">  │   │ ├── camelcase@2.1.1 </tspan>
<tspan x="10" y="4202">  │   │ ├── cli-boxes@1.0.0 </tspan>
<tspan x="10" y="4218">  │   │ ├── filled-array@1.1.0 </tspan>
<tspan x="10" y="4234">  │   │ ├── repeating@2.0.1 </tspan>
<tspan x="10" y="4250">  │   │ └── widest-line@1.0.0 </tspan>
<tspan x="10" y="4266">  │   ├─┬ configstore@2.1.0 </tspan>
<tspan x="10" y="4282">  │   │ ├─┬ dot-prop@3.0.0 </tspan>
<tspan x="10" y="4298">  │   │ │ └── is-obj@1.0.1 </tspan>
<tspan x="10" y="4314">  │   │ └── uuid@2.0.3 </tspan>
<tspan x="10" y="4330">  │   ├─┬ latest-version@2.0.0 </tspan>
<tspan x="10" y="4346">  │   │ └─┬ package-json@2.4.0 </tspan>
<tspan x="10" y="4362">  │   │   ├─┬ got@5.7.1 </tspan>
<tspan x="10" y="4378">  │   │   │ ├─┬ create-error-class@3.0.2 </tspan>
<tspan x="10" y="4394">  │   │   │ │ └── capture-stack-trace@1.0.0 </tspan>
<tspan x="10" y="4410">  │   │   │ ├─┬ duplexer2@0.1.4 </tspan>
<tspan x="10" y="4426">  │   │   │ │ └─┬ readable-stream@2.2.6 </tspan>
<tspan x="10" y="4442">  │   │   │ │   └── isarray@1.0.0 </tspan>
<tspan x="10" y="4458">  │   │   │ ├── is-retry-allowed@1.1.0 </tspan>
<tspan x="10" y="4474">  │   │   │ ├── node-status-codes@1.0.0 </tspan>
<tspan x="10" y="4490">  │   │   │ ├─┬ parse-json@2.2.0 </tspan>
<tspan x="10" y="4506">  │   │   │ │ └─┬ error-ex@1.3.1 </tspan>
<tspan x="10" y="4522">  │   │   │ │   └── is-arrayish@0.2.1 </tspan>
<tspan x="10" y="4538">  │   │   │ ├─┬ pinkie-promise@2.0.1 </tspan>
<tspan x="10" y="4554">  │   │   │ │ └── pinkie@2.0.4 </tspan>
<tspan x="10" y="4570">  │   │   │ ├─┬ readable-stream@2.2.6 </tspan>
<tspan x="10" y="4586">  │   │   │ │ └── isarray@1.0.0 </tspan>
<tspan x="10" y="4602">  │   │   │ ├── timed-out@3.1.3 </tspan>
<tspan x="10" y="4618">  │   │   │ ├── unzip-response@1.0.2 </tspan>
<tspan x="10" y="4634">  │   │   │ └── url-parse-lax@1.0.0 </tspan>
<tspan x="10" y="4650">  │   │   └── registry-auth-token@3.1.1 </tspan>
<tspan x="10" y="4666">  │   └── lazy-req@1.1.0 </tspan>
<tspan x="10" y="4682">  ├─┬ tar@2.2.1 </tspan>
<tspan x="10" y="4698">  │ └── block-stream@0.0.9 </tspan>
<tspan x="10" y="4714">  ├── tmp@0.0.27 </tspan>
<tspan x="10" y="4730">  ├─┬ universal-analytics@0.3.11 </tspan>
<tspan x="10" y="4746">  │ ├── async@0.2.10 </tspan>
<tspan x="10" y="4762">  │ ├── node-uuid@1.4.8 </tspan>
<tspan x="10" y="4778">  │ └── underscore@1.8.3 </tspan>
<tspan x="10" y="4794">  ├─┬ update-notifier@0.5.0 </tspan>
<tspan x="10" y="4810">  │ ├── is-npm@1.0.0 </tspan>
<tspan x="10" y="4826">  │ ├─┬ latest-version@1.0.1 </tspan>
<tspan x="10" y="4842">  │ │ └─┬ package-json@1.2.0 </tspan>
<tspan x="10" y="4858">  │ │   ├─┬ got@3.3.1 </tspan>
<tspan x="10" y="4874">  │ │   │ ├─┬ duplexify@3.5.0 </tspan>
<tspan x="10" y="4890">  │ │   │ │ ├─┬ end-of-stream@1.0.0 </tspan>
<tspan x="10" y="4906">  │ │   │ │ │ └── once@1.3.3 </tspan>
<tspan x="10" y="4922">  │ │   │ │ ├─┬ readable-stream@2.2.6 </tspan>
<tspan x="10" y="4938">  │ │   │ │ │ └── isarray@1.0.0 </tspan>
<tspan x="10" y="4954">  │ │   │ │ └── stream-shift@1.0.0 </tspan>
<tspan x="10" y="4970">  │ │   │ ├── infinity-agent@2.0.3 </tspan>
<tspan x="10" y="4986">  │ │   │ ├── is-redirect@1.0.0 </tspan>
<tspan x="10" y="5002">  │ │   │ ├── is-stream@1.1.0 </tspan>
<tspan x="10" y="5018">  │ │   │ ├── lowercase-keys@1.0.0 </tspan>
<tspan x="10" y="5034">  │ │   │ ├── nested-error-stacks@1.0.2 </tspan>
<tspan x="10" y="5050">  │ │   │ ├── object-assign@3.0.0 </tspan>
<tspan x="10" y="5066">  │ │   │ ├── prepend-http@1.0.4 </tspan>
<tspan x="10" y="5082">  │ │   │ ├─┬ read-all-stream@3.1.0 </tspan>
<tspan x="10" y="5098">  │ │   │ │ └─┬ readable-stream@2.2.6 </tspan>
<tspan x="10" y="5114">  │ │   │ │   └── isarray@1.0.0 </tspan>
<tspan x="10" y="5130">  │ │   │ └── timed-out@2.0.0 </tspan>
<tspan x="10" y="5146">  │ │   └─┬ registry-url@3.1.0 </tspan>
<tspan x="10" y="5162">  │ │     └─┬ rc@1.2.1 </tspan>
<tspan x="10" y="5178">  │ │       ├── deep-extend@0.4.1 </tspan>
<tspan x="10" y="5194">  │ │       ├── ini@1.3.4 </tspan>
<tspan x="10" y="5210">  │ │       ├── minimist@1.2.0 </tspan>
<tspan x="10" y="5226">  │ │       └── strip-json-comments@2.0.1 </tspan>
<tspan x="10" y="5242">  │ ├─┬ repeating@1.1.3 </tspan>
<tspan x="10" y="5258">  │ │ └── is-finite@1.0.2 </tspan>
<tspan x="10" y="5274">  │ └── semver-diff@2.1.0 </tspan>
<tspan x="10" y="5290">  ├─┬ user-home@2.0.0 </tspan>
<tspan x="10" y="5306">  │ └── os-homedir@1.0.2 </tspan>
<tspan x="10" y="5322">  ├── uuid@3.0.1 </tspan>
<tspan x="10" y="5338">  └─┬ winston@1.1.2 </tspan>
<tspan x="10" y="5354">    ├── async@1.0.0 </tspan>
<tspan x="10" y="5370">    ├── cycle@1.0.3 </tspan>
<tspan x="10" y="5386">    ├── eyes@0.1.8 </tspan>
<tspan x="10" y="5402">    ├── pkginfo@0.3.1 </tspan>
<tspan x="10" y="5418">    └── stack-trace@0.0.9</tspan>
</text>
</svg>
